<?xml version="1.0" encoding="utf-8"?>
<!-- Generator: Adobe Illustrator 25.0.0, SVG Export Plug-In . SVG Version: 6.00 Build 0)  -->
<svg version="1.1" id="Capa_6" xmlns="http://www.w3.org/2000/svg" xmlns:xlink="http://www.w3.org/1999/xlink" x="0px" y="0px"
	 viewBox="0 0 371.56 568" style="enable-background:new 0 0 371.56 568;" xml:space="preserve">
<style type="text/css">
	.st0{fill:#26387F;}
	.st1{fill:#E5AF46;}
</style>
<path class="st0" d="M276.57,248.9c-7.3,0-11.34,6.55-11.34,10.31c0,8.82,0,31.63-19.04,56.83c-13.72,18.15-32.87,27.1-45.89,31.35
	c6.9-5.39,13.31-14.55,18.58-26.84c9.24-21.57,14.33-51.04,14.33-82.99c0-31.88-5.09-61.33-14.33-82.92
	c-8.83-20.63-20.87-32.47-33.02-32.47c-12.15,0-24.19,11.83-33.02,32.47c-9.24,21.59-14.33,51.04-14.33,82.92
	c0,31.95,5.09,61.42,14.33,82.99c5.27,12.29,11.68,21.45,18.58,26.84c-13.02-4.25-32.17-13.2-45.89-31.35
	c-19.04-25.2-19.04-48.01-19.04-56.83c0-3.76-4.03-10.31-11.34-10.31c-17.62,0-31.32,44.43-16.32,74.1
	c14.78,29.22,40.79,39.28,61.67,39.28c16.91,0,34.33-6.56,41.7-9.7c1.21,0.23,2.43,0.36,3.65,0.36c1.22,0,2.44-0.12,3.65-0.36
	c7.37,3.14,24.79,9.7,41.7,9.7c20.88,0,46.9-10.06,61.67-39.28C307.89,293.33,294.19,248.9,276.57,248.9z M140.51,358.28
	c-7.6,0-19.17-1.42-31.17-8.17c-11.42-6.43-20.49-16.16-26.94-28.92c-4.51-8.92-6.59-20.31-5.84-32.05
	c0.68-10.6,3.56-20.75,7.92-27.84c3.33-5.42,7.12-8.4,10.66-8.4c5.13,0,7.34,4.79,7.34,6.31c0,9.02,0,32.97,19.85,59.24
	c15.3,20.24,36.76,29.5,50.29,33.55C164.17,354.98,152.14,358.28,140.51,358.28z M156.52,318.98c-9.04-21.08-14.01-50-14.01-81.42
	c0-66.63,22.42-111.39,43.35-111.39c20.94,0,43.35,44.76,43.35,111.39c0,31.42-4.98,60.33-14.01,81.42
	c-8.16,19.05-18.86,29.97-29.34,29.97S164.68,338.02,156.52,318.98z M295.16,289.14c0.75,11.74-1.33,23.13-5.84,32.05
	c-6.45,12.76-15.52,22.49-26.94,28.92c-12,6.75-23.57,8.17-31.17,8.17c-11.61,0-23.64-3.31-32.12-6.29
	c13.52-4.05,34.98-13.32,50.28-33.55c19.85-26.27,19.85-50.22,19.85-59.24c0-1.52,2.21-6.31,7.34-6.31c3.55,0,7.33,2.98,10.66,8.4
	C291.59,268.39,294.48,278.54,295.16,289.14z"/>
<polygon class="st1" points="327.23,252.32 327.23,252.32 327.23,252.32 "/>
<path class="st0" d="M367.15,308.89c0.01-0.23,0.02-0.45,0.03-0.68c0.02-0.51,0.04-1.01,0.05-1.51c0-0.19,0.01-0.38,0.01-0.56
	c0.01-0.61,0.01-1.21-0.01-1.81c0-0.07,0-0.14,0-0.2c-0.03-1.42-0.11-2.81-0.24-4.17c0-0.01,0-0.03,0-0.04
	c-0.06-0.66-0.13-1.31-0.22-1.95c-0.01-0.04-0.01-0.08-0.02-0.12c-0.08-0.65-0.18-1.29-0.28-1.92c0,0,0,0,0,0l0,0
	c-4.89-29.41-31.5-42.21-34.67-43c-1.67-0.42-3.2-0.61-4.58-0.61v4h0c1.1,0,2.31,0.16,3.59,0.48c1.14,0.32,10.61,4.59,19.02,13.88
	c6.48,7.16,10.61,15.25,12.4,24.18c-2.04-0.39-4.14-0.61-6.3-0.61c-18.79,0-34.02,15.23-34.02,34.02c0,9.87,4.21,18.74,10.92,24.95
	c-7.19,3.32-15.01,5.19-22.26,5.19c-2.54,0-5.34-1.83-6.51-4.25c-1.25-2.59-0.62-5.59,1.83-8.66
	c11.35-14.24,15.05-21.37,18.82-36.33c4.81-19.04-1.46-35.42-4.14-42.41c-0.94-2.45-0.58-5.62,0.87-7.73
	c1.24-1.8,3.18-2.71,5.78-2.71l0-4c0,0,0,0,0,0c-9.92,0-12.72,9.76-10.38,15.87c2.61,6.83,8.48,22.27,4,40
	c-3.7,14.67-7.29,21.28-18.07,34.81c-8.15,10.22,0.3,19.41,7.81,19.41c7.79,0,16.99-2.05,25.69-6.39l0,0l0,0
	c0.23-0.12,0.46-0.24,0.7-0.36c0.4-0.21,0.8-0.42,1.2-0.63c0.24-0.13,0.49-0.26,0.73-0.4c0.54-0.3,1.08-0.62,1.61-0.94
	c0.24-0.14,0.47-0.29,0.7-0.43c0.42-0.26,0.84-0.53,1.26-0.8c0.22-0.15,0.45-0.29,0.67-0.44c0.5-0.34,1-0.69,1.5-1.05
	c0.22-0.16,0.43-0.31,0.65-0.47c0.53-0.4,1.06-0.8,1.59-1.22c0.16-0.12,0.31-0.25,0.46-0.38c0.43-0.35,0.86-0.71,1.28-1.07
	c0.18-0.16,0.36-0.31,0.54-0.47c0.51-0.46,1.02-0.92,1.52-1.4c0.16-0.16,0.32-0.31,0.48-0.47c0.43-0.42,0.85-0.85,1.27-1.29
	c0.12-0.12,0.24-0.24,0.35-0.37c0.49-0.53,0.98-1.07,1.45-1.62c0.14-0.17,0.29-0.34,0.43-0.51c0.48-0.57,0.95-1.14,1.41-1.74
	c0.07-0.1,0.14-0.19,0.22-0.29c0.41-0.54,0.81-1.09,1.21-1.66c0.11-0.16,0.23-0.33,0.34-0.49c0.43-0.63,0.85-1.27,1.26-1.93
	c0.09-0.15,0.18-0.3,0.27-0.46c0.36-0.6,0.72-1.21,1.06-1.83c0.07-0.12,0.14-0.24,0.2-0.36c0.38-0.7,0.74-1.42,1.09-2.15
	c0.09-0.18,0.17-0.36,0.25-0.54c0.35-0.75,0.69-1.51,1.01-2.29c0.02-0.05,0.04-0.1,0.06-0.15c0.31-0.75,0.59-1.51,0.87-2.29
	c0.06-0.18,0.13-0.36,0.19-0.54c0.28-0.8,0.54-1.62,0.78-2.45c0.04-0.15,0.08-0.3,0.13-0.45c0.22-0.77,0.42-1.55,0.61-2.34
	c0.03-0.14,0.07-0.28,0.1-0.43c0.2-0.87,0.38-1.76,0.54-2.66c0.04-0.2,0.07-0.4,0.1-0.6c0.16-0.93,0.3-1.87,0.42-2.83
	c0.09-0.73,0.16-1.45,0.22-2.17c0.02-0.22,0.03-0.43,0.05-0.64C367.09,309.9,367.13,309.39,367.15,308.89z M325.92,328.27
	c0-16.55,13.47-30.02,30.02-30.02c2.35,0,4.68,0.27,6.95,0.81c0.12,1.06,0.21,2.13,0.27,3.21c0,0.09,0.01,0.17,0.01,0.26
	c0.05,0.97,0.07,1.94,0.07,2.93c0,0.18,0,0.36,0,0.54c-0.01,0.9-0.05,1.81-0.1,2.73c-0.01,0.23-0.02,0.45-0.03,0.67
	c-0.07,1.11-0.17,2.22-0.31,3.34c-0.12,1.03-0.28,2.02-0.45,3c-0.03,0.17-0.06,0.34-0.09,0.5c-0.15,0.79-0.32,1.56-0.49,2.32
	c-1.71-1.03-3.69-1.64-5.83-1.64c-6.26,0-11.34,5.08-11.34,11.34c0,4.81,3,8.91,7.23,10.56c-0.03,0.04-0.06,0.08-0.1,0.12
	c-0.34,0.41-0.68,0.8-1.03,1.19c-0.27,0.3-0.53,0.59-0.8,0.88c-0.21,0.23-0.42,0.45-0.64,0.67c-3.55,3.67-7.32,6.44-10.69,8.49
	c-0.4,0.24-0.79,0.48-1.2,0.71c-0.16,0.09-0.32,0.19-0.48,0.28c-0.07,0.04-0.15,0.08-0.22,0.12
	C329.9,345.59,325.92,337.16,325.92,328.27z"/>
<path class="st0" d="M50.87,308.19c-4.48-17.73,1.39-33.17,4-40c2.34-6.11-0.45-15.87-10.38-15.87c-1.39,0-2.91,0.19-4.58,0.61
	c-3.17,0.79-29.78,13.59-34.67,43l0,0c0,0,0,0,0,0c-0.11,0.63-0.2,1.27-0.28,1.92c-0.01,0.04-0.01,0.08-0.02,0.12
	c-0.08,0.64-0.16,1.29-0.22,1.95c0,0.01,0,0.03,0,0.04c-0.13,1.36-0.21,2.75-0.24,4.17c0,0.06,0,0.13,0,0.19
	c-0.01,0.6-0.01,1.2-0.01,1.82c0,0.19,0.01,0.37,0.01,0.56c0.01,0.5,0.03,1,0.05,1.51c0.01,0.23,0.02,0.45,0.03,0.68
	c0.03,0.5,0.06,1.01,0.1,1.52c0.02,0.21,0.03,0.43,0.05,0.64c0.06,0.72,0.14,1.44,0.22,2.17c0.12,0.96,0.26,1.9,0.42,2.83
	c0.03,0.2,0.07,0.4,0.1,0.6c0.16,0.9,0.34,1.79,0.54,2.66c0.03,0.14,0.07,0.28,0.1,0.42c0.19,0.79,0.39,1.57,0.61,2.34
	c0.04,0.15,0.08,0.3,0.13,0.45c0.24,0.83,0.5,1.65,0.78,2.45c0.06,0.18,0.13,0.36,0.19,0.54c0.28,0.78,0.56,1.54,0.87,2.29
	c0.02,0.05,0.04,0.1,0.06,0.15c0.32,0.78,0.66,1.54,1.01,2.29c0.08,0.18,0.17,0.36,0.25,0.54c0.35,0.73,0.71,1.45,1.09,2.15
	c0.07,0.12,0.14,0.24,0.2,0.36c0.34,0.62,0.7,1.23,1.06,1.83c0.09,0.15,0.18,0.3,0.27,0.46c0.41,0.66,0.83,1.3,1.26,1.93
	c0.11,0.16,0.23,0.33,0.34,0.49c0.39,0.56,0.8,1.12,1.21,1.66c0.07,0.09,0.14,0.19,0.21,0.29c0.46,0.59,0.93,1.17,1.41,1.74
	c0.14,0.17,0.29,0.34,0.43,0.51c0.48,0.55,0.96,1.1,1.45,1.62c0.11,0.12,0.23,0.24,0.35,0.36c0.42,0.44,0.84,0.87,1.27,1.29
	c0.16,0.16,0.32,0.31,0.48,0.47c0.5,0.48,1.01,0.95,1.52,1.41c0.18,0.16,0.36,0.31,0.54,0.47c0.42,0.37,0.85,0.73,1.28,1.08
	c0.15,0.13,0.31,0.25,0.46,0.38c0.52,0.42,1.06,0.82,1.59,1.22c0.21,0.16,0.43,0.32,0.65,0.47c0.5,0.36,1,0.71,1.5,1.05
	c0.22,0.15,0.44,0.29,0.66,0.44c0.42,0.27,0.84,0.54,1.26,0.81c0.23,0.14,0.47,0.29,0.7,0.43c0.54,0.32,1.07,0.64,1.61,0.94
	c0.24,0.14,0.49,0.27,0.73,0.4c0.4,0.22,0.8,0.43,1.2,0.63c0.23,0.12,0.46,0.24,0.69,0.36c0,0,0,0,0,0l0,0
	c8.7,4.34,17.9,6.39,25.69,6.39c7.51,0,15.95-9.19,7.81-19.41C58.15,329.47,54.57,322.85,50.87,308.19z M8.55,302.53
	c0-0.09,0.01-0.17,0.01-0.26c0.06-1.08,0.15-2.15,0.27-3.21c2.27-0.54,4.6-0.81,6.95-0.81c16.55,0,30.02,13.46,30.02,30.02
	c0,8.89-3.98,17.32-10.75,23.01c-0.07-0.04-0.15-0.08-0.22-0.12c-0.16-0.09-0.32-0.18-0.48-0.28c-0.4-0.23-0.8-0.47-1.2-0.71
	c-3.37-2.05-7.13-4.82-10.69-8.49c-0.21-0.22-0.42-0.45-0.64-0.67c-0.27-0.29-0.54-0.58-0.8-0.88c-0.34-0.39-0.69-0.78-1.03-1.19
	c-0.03-0.04-0.06-0.08-0.1-0.12c4.23-1.65,7.23-5.75,7.23-10.56c0-6.26-5.08-11.34-11.34-11.34c-2.14,0-4.13,0.61-5.83,1.64
	c-0.18-0.76-0.35-1.53-0.49-2.32c-0.03-0.17-0.06-0.34-0.09-0.5c-0.17-0.98-0.33-1.98-0.45-3.01c0,0,0,0,0,0
	c-0.13-1.12-0.23-2.23-0.31-3.34c-0.02-0.23-0.02-0.45-0.03-0.67c-0.05-0.91-0.09-1.82-0.1-2.73c0-0.18,0-0.37,0-0.55
	C8.48,304.47,8.5,303.5,8.55,302.53z M67.65,354.15c-1.17,2.42-3.97,4.25-6.51,4.25c-7.25,0-15.07-1.87-22.26-5.19
	c6.71-6.21,10.92-15.08,10.92-24.95c0-18.79-15.23-34.02-34.02-34.02c-2.16,0-4.25,0.23-6.3,0.61c1.79-8.93,5.92-17.02,12.4-24.18
	c8.41-9.29,17.88-13.56,18.99-13.88c1.3-0.32,2.51-0.49,3.61-0.49c2.6,0,4.54,0.91,5.77,2.71c1.45,2.11,1.81,5.28,0.87,7.73
	c-2.68,6.99-8.95,23.37-4.14,42.41c3.78,14.96,7.47,22.09,18.82,36.33C68.26,348.56,68.9,351.56,67.65,354.15z"/>
<path class="st0" d="M185.86,88.16c-7.35,0-13.34,5.98-13.34,13.34s5.98,13.34,13.34,13.34c7.36,0,13.34-5.98,13.34-13.34
	S193.22,88.16,185.86,88.16z M185.86,110.84c-5.15,0-9.34-4.19-9.34-9.34s4.19-9.34,9.34-9.34s9.34,4.19,9.34,9.34
	S191.01,110.84,185.86,110.84z"/>
<path class="st0" d="M156.94,56.59l0.96,0.51l0.95-0.54c4.39-2.47,9.16-3.83,14.2-4.06c1.62-0.07,3.27-0.03,4.94,0.16
	c0.13,1.16,0.19,2.33,0.19,3.48c0,0.49-0.02,0.98-0.04,1.46c-0.23,5.03-1.59,9.81-4.06,14.2l-0.54,0.95l0.51,0.96
	c2.32,4.38,6.84,7.1,11.79,7.1s9.46-2.72,11.79-7.1l0.51-0.96l-0.54-0.95c-2.46-4.39-3.83-9.16-4.06-14.2
	c-0.02-0.48-0.04-0.97-0.04-1.46c0-1.14,0.07-2.31,0.19-3.48c1.67-0.18,3.33-0.23,4.94-0.16c5.03,0.23,9.81,1.59,14.2,4.06
	l0.95,0.54l0.96-0.51c4.38-2.32,7.1-6.84,7.1-11.79s-2.72-9.46-7.1-11.79l-0.96-0.51l-0.95,0.54c-4.39,2.47-9.16,3.83-14.2,4.06
	c-1.63,0.07-3.3,0.03-4.94-0.15c-0.13-1.17-0.19-2.33-0.19-3.48c0-0.49,0.02-0.98,0.04-1.46c0.23-5.03,1.59-9.81,4.06-14.2
	l0.54-0.95l-0.51-0.96c-2.32-4.38-6.84-7.1-11.79-7.1s-9.46,2.72-11.79,7.1l-0.51,0.96l0.54,0.95c2.47,4.39,3.83,9.16,4.06,14.2
	c0.02,0.48,0.04,0.97,0.04,1.46c0,1.15-0.06,2.31-0.19,3.48c-1.66,0.18-3.32,0.23-4.94,0.15c-5.03-0.23-9.81-1.59-14.2-4.06
	l-0.95-0.54l-0.96,0.51c-4.38,2.32-7.1,6.84-7.1,11.79S152.57,54.27,156.94,56.59z M157.93,37.09c4.65,2.42,9.67,3.77,14.95,4.01
	c2.36,0.11,4.8-0.02,7.21-0.39l1.44-0.22l0.23-1.44c0.29-1.86,0.44-3.73,0.44-5.57c0-0.55-0.02-1.1-0.04-1.64
	c-0.24-5.27-1.58-10.3-4.01-14.95c1.73-2.54,4.6-4.09,7.72-4.09c3.12,0,5.99,1.54,7.72,4.09c-2.42,4.65-3.77,9.67-4.01,14.95
	c-0.02,0.55-0.04,1.09-0.04,1.64c0,1.84,0.15,3.72,0.44,5.57l0.23,1.44l1.44,0.22c2.36,0.37,4.82,0.5,7.21,0.39
	c5.27-0.24,10.3-1.58,14.95-4.01c2.54,1.73,4.09,4.6,4.09,7.72s-1.54,5.99-4.09,7.72c-4.65-2.42-9.67-3.77-14.95-4.01
	c-2.35-0.1-4.78,0.02-7.2,0.39l-1.44,0.22l-0.23,1.44c-0.29,1.86-0.44,3.73-0.44,5.57c0,0.55,0.02,1.1,0.04,1.64
	c0.24,5.27,1.58,10.3,4.01,14.95c-1.73,2.54-4.6,4.09-7.72,4.09c-3.12,0-5.99-1.54-7.72-4.09c2.42-4.65,3.77-9.67,4.01-14.95
	c0.02-0.55,0.04-1.09,0.04-1.64c0-1.84-0.15-3.71-0.44-5.57l-0.23-1.44l-1.44-0.22c-2.42-0.38-4.85-0.5-7.21-0.39
	c-5.27,0.24-10.3,1.58-14.95,4.01c-2.54-1.73-4.09-4.6-4.09-7.72S155.39,38.81,157.93,37.09z"/>
<g>
	<path class="st0" d="M104.97,501.74c2.41-2.61,3.62-6.08,3.43-9.76c-0.23-4.39-2.39-8.58-6.08-11.82c-5.67-4.97-10.28-8.28-18-5.49
		c-12.4,4.48-30.85,19.77-30.85,43.52c0,32.39,29.91,44.52,36.02,44.52c5.04,0,7.67-3.94,7.67-7.84c0-1.93-0.82-3.61-1.76-5.54
		c-1.65-3.37-3.91-7.98-3.91-17.57c0-15.64,9-25.23,12.84-29.33L104.97,501.74z M101.41,499.7c-3.81,4.06-13.93,14.84-13.93,32.07
		c0,10.51,2.6,15.82,4.31,19.33c0.79,1.61,1.36,2.77,1.36,3.78c0,0.39-0.1,3.84-3.67,3.84c-4.75,0-32.02-11.17-32.02-40.52
		c0-21.54,17.31-35.81,28.21-39.76c1.46-0.53,2.74-0.78,3.94-0.78c3.33,0,6.02,1.97,10.06,5.52c2.87,2.52,4.55,5.72,4.72,9.02
		c0.14,2.6-0.71,5.03-2.38,6.84L101.41,499.7z"/>
	<path class="st0" d="M286.49,474.67c-7.72-2.79-12.33,0.51-18,5.49c-3.69,3.23-5.85,7.43-6.08,11.82c-0.2,3.68,1.02,7.15,3.43,9.76
		l0.65,0.69c3.84,4.1,12.84,13.69,12.84,29.33c0,9.59-2.26,14.2-3.91,17.57c-0.95,1.93-1.76,3.6-1.76,5.54
		c0,3.89,2.63,7.84,7.67,7.84c6.11,0,36.02-12.12,36.02-44.52C317.34,494.44,298.89,479.16,286.49,474.67z M281.33,558.71
		c-3.57,0-3.67-3.44-3.67-3.84c0-1.01,0.57-2.17,1.36-3.78c1.72-3.51,4.31-8.82,4.31-19.33c0-17.22-10.12-28.01-13.92-32.06
		l-0.62-0.67c-1.67-1.82-2.52-4.25-2.38-6.84c0.18-3.3,1.85-6.5,4.73-9.02c4.04-3.55,6.73-5.52,10.06-5.52
		c1.2,0,2.48,0.25,3.94,0.78c10.91,3.94,28.21,18.22,28.21,39.76C313.34,547.54,286.08,558.71,281.33,558.71z"/>
	<path class="st0" d="M168.45,500.1c-4.39-3.93-9.64-6.72-15.37-8.09c-6.81-1.63-14.22-1.75-20.95,0.31
		c-6.16,1.89-11.77,5.43-16.31,9.99c-4.27,4.3-7.68,9.53-9.63,15.29c-2.15,6.34-1.82,13.12-0.62,19.62
		c1.09,5.97,3.28,12.9,8.12,16.94c1.98,1.65,4.36,2.76,6.98,2.75c3.5,0,6.83-1.8,8.83-4.66c1.89-2.71,1.55-5.83,1.43-8.95
		c-0.13-3.53-0.2-7.12,0.53-10.6c0.76-3.65,2.47-6.85,4.58-9.89c1.63-2.35,3.6-4.55,5.91-6.26c1.28-0.95,2.64-1.72,4.05-2.36
		c-0.16,0.15-0.33,0.29-0.49,0.45c-4.38,4.5-6.66,10.65-6.86,16.87c-0.21,6.45,2.11,12.8,6.48,17.56
		c4.33,4.71,10.46,7.49,16.83,7.83c3.09,0.16,6.19-0.67,7.76-3.57c1.18-2.17,1.28-4.79,0.45-7.1c-1.64-4.54-6.73-8.33-4.59-13.57
		c1.03-2.52,3.23-3.73,5.85-3.99c2.4-0.24,4.71,0.14,6.93-1.05c6.41-3.43,2.93-11.32-0.03-15.79
		C175.55,507.61,172.21,503.46,168.45,500.1z M138.16,514.8c-4.7,4.06-8.69,10.05-10.15,16.1c-0.82,3.41-0.98,6.94-0.9,10.44
		c0.03,1.54,0.12,3.07,0.16,4.6c0.04,1.26,0.08,2.43-0.5,3.58c-1.24,2.44-4.15,3.93-6.83,3.61c-2.07-0.25-3.81-1.62-5.15-3.17
		c-3.98-4.59-5.5-11.44-6.11-17.31c-0.6-5.77-0.28-11.25,2.12-16.59c4.77-10.6,14.69-19.01,26.23-21.07
		c6.25-1.12,13.17-0.35,19.1,1.86c4.68,1.74,8.74,4.72,12.16,8.33c0.92,0.97,1.78,1.99,2.63,3.02c-1.53-0.27-3.08-0.39-4.48-0.45
		c-4.51-0.19-9.25-0.05-13.71,0.61C147.34,509.14,142.29,511.23,138.16,514.8z M177.46,523.61c-1.36,1.55-3.45,1.14-5.28,1.24
		c-2.67,0.14-5.3,0.8-7.39,2.55c-2.25,1.9-3.58,5.13-3.54,8.05c0.03,2.55,1.14,4.86,2.48,6.97c1.18,1.85,2.69,3.69,3.14,5.89
		c0.32,1.55-0.01,3.53-1.66,4.41c-1.22,0.65-2.8,0.46-4.12,0.34c-1.41-0.13-2.8-0.43-4.16-0.84c-5.43-1.67-9.94-5.59-12.45-10.67
		c-4.99-10.07-0.93-23.81,9.62-28.39c2.56-1.11,5.34-1.59,8.12-1.61c0.28,0,0.53-0.06,0.75-0.15c2.7-0.05,5.41,0.04,7.97,0.63
		c1.99,0.46,4.05,1.22,4.99,3.09c0.08,0.16,0.18,0.3,0.29,0.42c0.43,0.76,0.83,1.53,1.18,2.34c0.23,0.54,0.43,1.09,0.6,1.65
		c0.07,0.23,0.13,0.46,0.19,0.69c0.04,0.15,0.14,0.73,0.13,0.6C178.38,521.51,178.13,522.85,177.46,523.61z"/>
	<path class="st0" d="M261.61,509.46c-6.98-10.97-19.13-18.7-32.33-18.65c-6.76,0.02-13.57,1.33-19.52,4.63
		c-4.54,2.52-8.35,6.11-11.62,10.1c-3.47,4.24-7.72,9.18-8.43,14.8c-0.37,2.97,1.15,6.06,3.87,7.38c2.26,1.09,4.56,0.66,6.96,0.96
		c2.68,0.34,4.77,1.69,5.71,4.29c0.88,2.44,0.26,4.61-1.02,6.77c-1.3,2.18-2.89,4.17-3.73,6.6c-0.79,2.3-0.68,4.95,0.55,7.09
		c1.66,2.89,4.76,3.64,7.88,3.45c3.26-0.19,6.43-1.01,9.38-2.42c5.74-2.73,10.16-7.78,12.33-13.73c3.36-9.21,0.81-19.98-6.06-26.61
		c4.15,1.91,7.58,5.02,10.21,8.84c2.11,3.07,3.79,6.28,4.53,9.95c0.7,3.47,0.62,7.05,0.48,10.57c-0.12,3.15-0.41,6.2,1.53,8.92
		c2.02,2.82,5.37,4.58,8.85,4.53c5.79-0.09,9.79-5.13,11.99-9.97c2.96-6.52,4.26-14.21,3.91-21.35
		C266.8,519.85,264.68,514.27,261.61,509.46z M229.32,533.42c-0.26,5.76-2.98,11.17-7.36,14.9c-2.12,1.81-4.66,3.16-7.33,3.96
		c-1.42,0.42-2.87,0.71-4.34,0.83c-1.28,0.1-2.75,0.25-3.9-0.44c-1.59-0.95-1.87-2.91-1.51-4.47c0.5-2.19,2-4.02,3.18-5.88
		c1.34-2.11,2.43-4.44,2.41-6.99c-0.02-2.94-1.36-6.13-3.66-8.01c-2.1-1.72-4.73-2.34-7.39-2.46c-1.83-0.09-3.94,0.29-5.25-1.34
		c-1.46-1.81-0.64-3.82,0.23-5.78c0.33-0.75,0.71-1.48,1.12-2.19c0.1-0.12,0.2-0.25,0.28-0.4c0.97-1.91,3.09-2.67,5.13-3.12
		c2.31-0.51,4.71-0.58,7.08-0.55c0.33,0,0.65,0.01,0.98,0.01c0.16,0.05,0.34,0.08,0.53,0.08c5.62,0.04,10.93,2.17,14.69,6.4
		C227.92,522.14,229.56,527.88,229.32,533.42z M263.03,532.87c-0.37,3.4-1.1,6.79-2.24,10.02c-1.42,4.02-4.23,9.68-8.99,10.25
		c-2.75,0.33-5.71-1.23-6.91-3.75c-0.57-1.2-0.46-2.46-0.42-3.75c0.05-1.49,0.13-2.98,0.16-4.47c0.07-3.5-0.11-7.04-0.96-10.45
		c-0.86-3.45-2.54-6.58-4.54-9.5c-3.14-4.59-7.2-8.48-12.36-10.69c-5.13-2.2-10.53-2.55-16.04-2.72c-3.27-0.1-6.68-0.22-9.93,0.39
		c2.36-2.89,4.96-5.61,8.01-7.74c4.75-3.32,10.32-5.16,16.08-5.69c6.41-0.59,12.71,0.21,18.52,3.09c5.21,2.58,9.83,6.44,13.31,11.1
		c3.2,4.28,5.65,9.29,6.42,14.62C263.58,526.62,263.36,529.81,263.03,532.87z"/>
</g>
<g>
	<path class="st0" d="M50.41,377.65c0.1,7.75,0.25,15.45,0.35,21.9c0.1,4.55,0.9,7,4.75,7v1.1h-11v-1.1c3.15,0,4.15-1.85,4.15-5.6
		v-24.2c0-1.4-0.65-1.75-2.7-2v-1.1h13.65l7.7,21.4l7.7-21.4h13.1v1.1c-2.05,0.25-2.7,0.6-2.7,2v27.8c0,1.4,0.55,1.8,2.7,2v1.1
		h-15.4v-1.1c2.15-0.2,2.7-0.6,2.7-2v-26.6l-10.8,29.85h-3.2L50.41,377.65z"/>
	<path class="st0" d="M91.61,406.55c2.05-0.25,2.7-0.6,2.7-2v-27.8c0-1.4-0.65-1.75-2.7-2v-1.1h26.15l1.5,10.15h-1.1
		c-2.2-4.15-5.5-8.5-10.75-8.5h-3.1v12.15h0.7c3.75,0,7.4-1,7.4-3.9h1.1v9.5h-1.1c0-3.2-3.7-3.95-7.4-3.95h-0.7V406h4.35
		c5.25,0,8.55-4.35,10.75-8.5h1.1l-1.5,10.15h-27.4V406.55z"/>
	<path class="st0" d="M128.96,377.65c0.1,7.75,0.25,15.45,0.35,21.9c0.1,4.55,0.9,7,4.75,7v1.1h-11v-1.1c3.15,0,4.15-1.85,4.15-5.6
		v-24.2c0-1.4-0.65-1.75-2.7-2v-1.1h13.65l7.7,21.4l7.7-21.4h13.1v1.1c-2.05,0.25-2.7,0.6-2.7,2v27.8c0,1.4,0.55,1.8,2.7,2v1.1
		h-15.4v-1.1c2.15-0.2,2.7-0.6,2.7-2v-26.6l-10.8,29.85h-3.2L128.96,377.65z"/>
	<path class="st0" d="M170.11,390.65c0-10.65,6.85-17.75,17.1-17.75c10.25,0,17.1,7.1,17.1,17.75c0,10.65-6.85,17.75-17.1,17.75
		C176.96,408.4,170.11,401.3,170.11,390.65z M193.71,390.65c0-9.7-2.6-16.2-6.5-16.2c-3.9,0-6.5,6.5-6.5,16.2s2.6,16.2,6.5,16.2
		C191.11,406.85,193.71,400.35,193.71,390.65z"/>
	<path class="st0" d="M208.26,406.55c2.15-0.2,2.7-0.6,2.7-2v-27.8c0-1.4-0.65-1.75-2.7-2v-1.1h17c7.6,0,12.9,2.2,12.9,8.35
		c0,4.25-2.65,6.7-6.7,8.1l7.5,14.45c0.6,1.15,1.5,1.9,2.7,2v1.1h-15v-1.1c2.15-0.2,2.8-0.6,2.15-2l-5.55-12l-2.3,0.25v11.75
		c0,1.4,0.55,1.8,2.7,2v1.1h-15.4V406.55z M222.61,390.8c3.15-0.6,5.85-3,5.9-7.9c0.05-5.85-2.55-7.6-6.2-7.6h-1.35v15.8
		L222.61,390.8z"/>
	<path class="st0" d="M243.71,406.55c2.15-0.2,2.7-0.6,2.7-2v-27.8c0-1.4-0.55-1.8-2.7-2v-1.1h15.4v1.1c-2.15,0.2-2.7,0.6-2.7,2
		v27.8c0,1.4,0.55,1.8,2.7,2v1.1h-15.4V406.55z"/>
	<path class="st0" d="M260.86,406.55c2.15,0,3.8-1.65,5.25-5.15l11.75-28.5h2.2l12.85,31.5c0.65,1.55,1.3,2.15,3.25,2.15v1.1h-15.15
		v-1.1c2.55,0,2.35-1.9,0.8-5.9l-1.55-4.05h-10.25l-0.65,1.5c-2.65,6.3-1.9,8.45,3.1,8.45v1.1h-11.6V406.55z M279.61,394.9l-4.25-11
		l-4.65,11H279.61z"/>
	<path class="st0" d="M299.86,405.15l0.95-9.1h1.1c1.75,5.55,5.55,10.8,9.85,10.8c2.2,0,3.9-1.35,3.9-3.6c0-2.9-1.5-5.05-7.25-8.7
		c-5.55-3.5-8.55-7.1-8.55-11.9c0-5.85,4-9.75,12.55-9.75c4.3,0,7.8,0.6,10.6,2l-0.95,9.1h-1.1c-1.75-5.55-4.65-9.55-8.2-9.55
		c-2.2,0-3.8,1.6-3.8,3.8c0,3.15,1.9,5.15,6.05,8c7.05,4.85,10.15,7.25,10.15,12.25c0,5.65-4.7,9.95-13.25,9.95
		C307.61,408.45,303.16,407.3,299.86,405.15z"/>
	<path class="st0" d="M82.21,463.25c2.15-0.2,2.7-0.6,2.7-2V432.1c-3.7,0.6-6.8,3.45-9.35,8.4h-1.1l1.5-10.35
		c0.05-0.3,0.25-0.45,0.55-0.4c1.4,0.3,4.85,0.6,6.3,0.6h14.2c1.45,0,4.9-0.3,6.3-0.6c0.3-0.05,0.5,0.1,0.55,0.4l1.5,10.35h-1.1
		c-2.55-4.95-5.65-7.8-9.35-8.4v29.15c0,1.4,0.55,1.8,2.7,2v1.1h-15.4V463.25z"/>
	<path class="st0" d="M107.91,463.25c2.15-0.2,2.7-0.6,2.7-2v-27.8c0-1.4-0.55-1.8-2.7-2v-1.1h15.4v1.1c-2.15,0.2-2.7,0.6-2.7,2
		v27.8c0,1.4,0.55,1.8,2.7,2v1.1h-15.4V463.25z"/>
	<path class="st0" d="M126.81,463.25c2.15-0.2,2.7-0.6,2.7-2v-27.8c0-1.4-0.65-1.75-2.7-2v-1.1h17c7.6,0,12.9,2.2,12.9,8.35
		c0,4.25-2.65,6.7-6.7,8.1l7.5,14.45c0.6,1.15,1.5,1.9,2.7,2v1.1h-15v-1.1c2.15-0.2,2.8-0.6,2.15-2l-5.55-12l-2.3,0.25v11.75
		c0,1.4,0.55,1.8,2.7,2v1.1h-15.4V463.25z M141.16,447.5c3.15-0.6,5.85-3,5.9-7.9c0.05-5.85-2.55-7.6-6.2-7.6h-1.35v15.8
		L141.16,447.5z"/>
	<path class="st0" d="M160.51,463.25c2.15,0,3.8-1.65,5.25-5.15l11.75-28.5h2.2l12.85,31.5c0.65,1.55,1.3,2.15,3.25,2.15v1.1h-15.15
		v-1.1c2.55,0,2.35-1.9,0.8-5.9l-1.55-4.05h-10.25l-0.65,1.5c-2.65,6.3-1.9,8.45,3.1,8.45v1.1h-11.6V463.25z M179.26,451.6l-4.25-11
		l-4.65,11H179.26z"/>
	<path class="st0" d="M202.81,435.85l0.3,20.4c0.1,4.55,1,7,4.75,7v1.1h-11v-1.1c3.15,0,4.15-1.85,4.15-5.6v-24.2
		c0-1.4-0.65-1.75-2.7-2v-1.1h12.6l14.7,20.6c-0.05-5.05-0.1-8.9-0.2-12.5c-0.1-4.55-0.9-7-4.75-7v-1.1h11v1.1
		c-3.15,0-4.15,1.85-4.15,5.6v27.45h-4L202.81,435.85z"/>
	<path class="st0" d="M231.16,463.25c2.15,0,3.8-1.65,5.25-5.15l11.75-28.5h2.2l12.85,31.5c0.65,1.55,1.3,2.15,3.25,2.15v1.1h-15.15
		v-1.1c2.55,0,2.35-1.9,0.8-5.9l-1.55-4.05h-10.25l-0.65,1.5c-2.65,6.3-1.9,8.45,3.1,8.45v1.1h-11.6V463.25z M249.91,451.6l-4.25-11
		l-4.65,11H249.91z"/>
	<path class="st0" d="M270.16,461.85l0.95-9.1h1.1c1.75,5.55,5.55,10.8,9.85,10.8c2.2,0,3.9-1.35,3.9-3.6c0-2.9-1.5-5.05-7.25-8.7
		c-5.55-3.5-8.55-7.1-8.55-11.9c0-5.85,4-9.75,12.55-9.75c4.3,0,7.8,0.6,10.6,2l-0.95,9.1h-1.1c-1.75-5.55-4.65-9.55-8.2-9.55
		c-2.2,0-3.8,1.6-3.8,3.8c0,3.15,1.9,5.15,6.05,8c7.05,4.85,10.15,7.25,10.15,12.25c0,5.65-4.7,9.95-13.25,9.95
		C277.91,465.15,273.46,464,270.16,461.85z"/>
</g>
</svg>
